<svg xmlns="http://www.w3.org/2000/svg" xmlns:xlink="http://www.w3.org/1999/xlink" width="1920" height="369" viewBox="0 0 1920 369">
  <defs>
    <linearGradient id="linear-gradient" x1="0.5" y1="1" x2="0.5" gradientUnits="objectBoundingBox">
      <stop offset="0" stop-color="#01429b"/>
      <stop offset="1" stop-color="#005cb8"/>
    </linearGradient>
    <clipPath id="clip-path">
      <rect id="Rectangle_228" data-name="Rectangle 228" width="436.834" height="329.029" fill="none"/>
    </clipPath>
    <clipPath id="clip-path-2">
      <rect id="Rectangle_229" data-name="Rectangle 229" width="487" height="369" transform="translate(994 208)" fill="#fff"/>
    </clipPath>
  </defs>
  <g id="Group_199" data-name="Group 199" transform="translate(0 -244)">
    <rect id="Rectangle_207" data-name="Rectangle 207" width="1920" height="369" transform="translate(0 244)" fill="url(#linear-gradient)"/>
    <path id="Path_9951" data-name="Path 9951" d="M5741.084,408.445,6034,208.017,6479.962,208l-.015,368.917-492.721.067Z" transform="translate(-4560 36)" fill="#000d34" opacity="0.25" style="mix-blend-mode: hard-light;isolation: isolate"/>
    <g id="Group_177" data-name="Group 177" transform="translate(1427.026 258.747)" opacity="0.4">
      <path id="Path_9933" data-name="Path 9933" d="M226.949,61.14l-8.143,12.254L91.59,108.78,32.99,81.071,143.836,50.239" transform="translate(11.518 17.541)" fill="none" stroke="#fff" stroke-linejoin="round" stroke-width="3"/>
      <line id="Line_112" data-name="Line 112" x1="20.062" y2="30.19" transform="translate(246.138 36.949)" fill="none" stroke="#fff" stroke-linejoin="round" stroke-width="3"/>
      <rect id="Rectangle_211" data-name="Rectangle 211" width="230.106" height="16.463" transform="translate(40.098 82.75) rotate(-15.544)" fill="none" stroke="#fff" stroke-width="3"/>
      <path id="Path_9934" data-name="Path 9934" d="M111.521,86.047,122.1,95.111l15.31-4.259L141.8,77.626Z" transform="translate(38.937 27.103)" fill="none" stroke="#fff" stroke-linejoin="round" stroke-width="3"/>
      <path id="Path_9935" data-name="Path 9935" d="M60.464,85.334,213.6,42.74,196.967,66.66,87.674,97.059Z" transform="translate(21.111 14.923)" fill="none" stroke="#fff" stroke-linejoin="round" stroke-width="3"/>
      <g id="Group_176" data-name="Group 176">
        <g id="Group_175" data-name="Group 175" clip-path="url(#clip-path)">
          <path id="Path_9936" data-name="Path 9936" d="M208.014,199.928l-3.962-15.034a17.807,17.807,0,0,0-34.437,9.077L175.686,217a10.327,10.327,0,0,0,12.617,7.353l14.466-3.813a10.328,10.328,0,0,0,7.353-12.619" transform="translate(59.013 59.921)" fill="none" stroke="#fff" stroke-width="3"/>
          <path id="Path_9937" data-name="Path 9937" d="M183.966,211.06,179.547,194.3l-1.994-8.409a24.389,24.389,0,0,1,13.724-27.871,24.387,24.387,0,0,0,12.641-31.288l-7.331-18.354" transform="translate(61.761 37.839)" fill="none" stroke="#fff" stroke-width="3"/>
          <path id="Path_9938" data-name="Path 9938" d="M170.65,195.047c.606-.107,34.437-9.078,34.437-9.078" transform="translate(59.582 64.931)" fill="none" stroke="#fff" stroke-width="3"/>
          <path id="Path_9939" data-name="Path 9939" d="M182.744,197.68l.062,5.855L6.038,205.387,5.4,144.18l176.768-1.85.449,42.927" transform="translate(1.884 49.694)" fill="none" stroke="#fff" stroke-width="3"/>
          <rect id="Rectangle_212" data-name="Rectangle 212" width="41.287" height="10.731" transform="translate(17.72 202.828) rotate(-0.599)" fill="none" stroke="#fff" stroke-linejoin="round" stroke-width="3"/>
          <rect id="Rectangle_213" data-name="Rectangle 213" width="11.092" height="11.092" transform="translate(68.361 202.298) rotate(-0.599)" fill="none" stroke="#fff" stroke-linejoin="round" stroke-width="3"/>
          <rect id="Rectangle_214" data-name="Rectangle 214" width="11.092" height="11.092" transform="translate(87.086 202.102) rotate(-0.599)" fill="none" stroke="#fff" stroke-linejoin="round" stroke-width="3"/>
          <rect id="Rectangle_215" data-name="Rectangle 215" width="11.092" height="11.092" transform="translate(105.811 201.906) rotate(-0.599)" fill="none" stroke="#fff" stroke-linejoin="round" stroke-width="3"/>
          <rect id="Rectangle_216" data-name="Rectangle 216" width="11.092" height="11.092" transform="translate(124.536 201.71) rotate(-0.599)" fill="none" stroke="#fff" stroke-linejoin="round" stroke-width="3"/>
          <rect id="Rectangle_217" data-name="Rectangle 217" width="11.092" height="11.092" transform="translate(143.261 201.514) rotate(-0.599)" fill="none" stroke="#fff" stroke-linejoin="round" stroke-width="3"/>
          <rect id="Rectangle_218" data-name="Rectangle 218" width="11.092" height="11.092" transform="translate(68.571 222.451) rotate(-0.599)" fill="none" stroke="#fff" stroke-linejoin="round" stroke-width="3"/>
          <rect id="Rectangle_219" data-name="Rectangle 219" width="11.092" height="11.092" transform="translate(87.297 222.255) rotate(-0.599)" fill="none" stroke="#fff" stroke-linejoin="round" stroke-width="3"/>
          <rect id="Rectangle_220" data-name="Rectangle 220" width="11.092" height="11.092" transform="translate(23.665 222.921) rotate(-0.599)" fill="none" stroke="#fff" stroke-linejoin="round" stroke-width="3"/>
          <rect id="Rectangle_221" data-name="Rectangle 221" width="11.092" height="11.092" transform="translate(42.39 222.725) rotate(-0.599)" fill="none" stroke="#fff" stroke-linejoin="round" stroke-width="3"/>
          <rect id="Rectangle_222" data-name="Rectangle 222" width="11.092" height="11.092" transform="translate(106.022 222.059) rotate(-0.599)" fill="none" stroke="#fff" stroke-linejoin="round" stroke-width="3"/>
          <rect id="Rectangle_223" data-name="Rectangle 223" width="11.092" height="11.092" transform="translate(124.747 221.863) rotate(-0.599)" fill="none" stroke="#fff" stroke-linejoin="round" stroke-width="3"/>
          <rect id="Rectangle_224" data-name="Rectangle 224" width="11.092" height="11.092" transform="translate(143.472 221.667) rotate(-0.599)" fill="none" stroke="#fff" stroke-linejoin="round" stroke-width="3"/>
          <path id="Path_9940" data-name="Path 9940" d="M66.406,153.551h0A32.978,32.978,0,0,1,98.228,133.42l9.476.413a32.978,32.978,0,0,0,28.363-13.907l4.883-6.9" transform="translate(23.185 39.462)" fill="none" stroke="#fff" stroke-linejoin="round" stroke-width="3"/>
          <path id="Path_9941" data-name="Path 9941" d="M267.527,155.362l-25.3,11.167-11.342,29.579,35.5,80.417,74.33-32.81L296.138,142.734,281.7,149.1" transform="translate(80.613 49.835)" fill="none" stroke="#fff" stroke-width="3"/>
          <path id="Path_9942" data-name="Path 9942" d="M242.264,160.371l-11.488,29.643,20.565-9.078Z" transform="translate(80.575 55.993)" fill="none" stroke="#fff" stroke-linecap="round" stroke-linejoin="round" stroke-width="3"/>
          <line id="Line_113" data-name="Line 113" y1="21.488" x2="48.683" transform="translate(331.931 235.186)" fill="none" stroke="#fff" stroke-width="3"/>
          <line id="Line_114" data-name="Line 114" y1="21.488" x2="48.684" transform="translate(341.034 255.809)" fill="none" stroke="#fff" stroke-width="3"/>
          <line id="Line_115" data-name="Line 115" y1="21.488" x2="48.684" transform="translate(350.137 276.432)" fill="none" stroke="#fff" stroke-width="3"/>
          <path id="Path_9943" data-name="Path 9943" d="M322.965,119.961a16.046,16.046,0,1,1-16.045-16.045A16.046,16.046,0,0,1,322.965,119.961Z" transform="translate(101.558 36.282)" fill="none" stroke="#fff" stroke-linejoin="round" stroke-width="3"/>
          <path id="Path_9944" data-name="Path 9944" d="M302.767,109.35a8.715,8.715,0,0,1,8.714,8.714" transform="translate(105.71 38.179)" fill="none" stroke="#fff" stroke-linejoin="round" stroke-width="3"/>
          <line id="Line_116" data-name="Line 116" x2="12.31" transform="translate(424.523 156.243)" fill="none" stroke="#fff" stroke-linejoin="round" stroke-width="3"/>
          <line id="Line_117" data-name="Line 117" x1="9.68" y2="9.68" transform="translate(24.329 139.954)" fill="none" stroke="#fff" stroke-width="3"/>
          <line id="Line_118" data-name="Line 118" x1="9.68" y2="9.68" transform="translate(1.431 162.852)" fill="none" stroke="#fff" stroke-width="3"/>
          <line id="Line_119" data-name="Line 119" x2="9.68" y2="9.68" transform="translate(1.431 139.954)" fill="none" stroke="#fff" stroke-width="3"/>
          <line id="Line_120" data-name="Line 120" x2="9.68" y2="9.68" transform="translate(24.329 162.852)" fill="none" stroke="#fff" stroke-width="3"/>
          <line id="Line_121" data-name="Line 121" x1="9.68" y2="9.68" transform="translate(230.698 121.921)" fill="none" stroke="#fff" stroke-width="3"/>
          <line id="Line_122" data-name="Line 122" x1="9.68" y2="9.68" transform="translate(207.8 144.819)" fill="none" stroke="#fff" stroke-width="3"/>
          <line id="Line_123" data-name="Line 123" x2="9.68" y2="9.68" transform="translate(207.8 121.921)" fill="none" stroke="#fff" stroke-width="3"/>
          <line id="Line_124" data-name="Line 124" x2="9.68" y2="9.68" transform="translate(230.698 144.819)" fill="none" stroke="#fff" stroke-width="3"/>
          <path id="Path_9945" data-name="Path 9945" d="M99.329,227.466a9.7,9.7,0,1,1-9.7-9.7A9.7,9.7,0,0,1,99.329,227.466Z" transform="translate(27.908 76.033)" fill="none" stroke="#fff" stroke-width="3"/>
          <rect id="Rectangle_225" data-name="Rectangle 225" width="17.207" height="17.207" transform="translate(86.126 27.103) rotate(-45)" fill="none" stroke="#fff" stroke-width="3"/>
          <rect id="Rectangle_226" data-name="Rectangle 226" width="17.207" height="17.207" transform="matrix(0.707, -0.707, 0.707, 0.707, 275.612, 313.209)" fill="none" stroke="#fff" stroke-width="3"/>
          <path id="Path_9946" data-name="Path 9946" d="M228.881,117.933,212.294,142a9.016,9.016,0,1,0,14.849,10.232l16.586-24.071Z" transform="translate(73.566 41.176)" fill="none" stroke="#fff" stroke-width="3"/>
          <line id="Line_125" data-name="Line 125" x2="14.849" y2="10.232" transform="translate(287.779 180.396)" fill="none" stroke="#fff" stroke-width="3"/>
          <rect id="Rectangle_227" data-name="Rectangle 227" width="9.793" height="12.958" transform="matrix(0.567, -0.823, 0.823, 0.567, 304.537, 160.548)" fill="none" stroke="#fff" stroke-width="3"/>
          <path id="Path_9947" data-name="Path 9947" d="M298.041,55.761l-31.725-26.57,11.054-13.2a9.977,9.977,0,0,1,14.055-1.244l16.427,13.757a9.977,9.977,0,0,1,1.243,14.057Z" transform="translate(92.984 4.337)" fill="none" stroke="#fff" stroke-width="3"/>
          <path id="Path_9948" data-name="Path 9948" d="M291.8,133.7l59.565-71.122L331.125,45.632l-11.5,13.728L287.9,32.788l11.5-13.726L279.163,2.114,204.485,91.279l72.2,60.469,7.106-8.486" transform="translate(71.395 0.738)" fill="none" stroke="#fff" stroke-width="3"/>
          <line id="Line_126" data-name="Line 126" x2="31.725" y2="26.57" transform="translate(354.341 39.447)" fill="none" stroke="#fff" stroke-width="3"/>
          <line id="Line_127" data-name="Line 127" x2="31.725" y2="26.57" transform="translate(344.853 50.776)" fill="none" stroke="#fff" stroke-width="3"/>
          <line id="Line_128" data-name="Line 128" x2="31.725" y2="26.57" transform="translate(335.365 62.104)" fill="none" stroke="#fff" stroke-width="3"/>
          <path id="Path_9949" data-name="Path 9949" d="M319.572,48.716l-.774.926-4.606,5.5L282.466,28.57l4.6-5.5.776-.926L278.358,14.2l-58.3,69.611,41.214,34.518,21.159-1.912,48.635-58.071Z" transform="translate(76.833 4.957)" fill="none" stroke="#fff" stroke-width="3"/>
          <path id="Path_9950" data-name="Path 9950" d="M250.634,94.321l9.632-11.492,11.491,9.625" transform="translate(87.508 28.92)" fill="none" stroke="#fff" stroke-width="3"/>
          <line id="Line_129" data-name="Line 129" x2="20.788" y2="17.409" transform="translate(364.679 27.103)" fill="none" stroke="#fff" stroke-width="3"/>
        </g>
      </g>
    </g>
    <g id="Mask_Group_13" data-name="Mask Group 13" transform="translate(0 36)" clip-path="url(#clip-path-2)">
      <path id="Path_9526" data-name="Path 9526" d="M44.779,505.959,376.143,767,470,620.125,169.27,414.5,470,208.875,376.143,62,44.779,323.041c-59.7,47.029-59.7,135.889,0,182.918" transform="translate(1011.499 -6)" fill="#fff" opacity="0.1"/>
    </g>
  </g>
</svg>
