<svg xmlns="http://www.w3.org/2000/svg" width="351" height="86" viewBox="0 0 351 86">
  <g id="edcrafter_logo" transform="translate(-785 -17)">
    <path id="Path_9507" data-name="Path 9507" d="M579.688,67.836h6.672v6.992h-6.483" transform="translate(495.156 -16.918)" fill="#01a3e3"/>
    <path id="Path_9508" data-name="Path 9508" d="M572.656,57.319c-.087.111-.146.151-.145.189.026,2.877-.046,5.76.116,8.63.16,2.844,2.929,5.408,5.906,5.721h.007a.817.817,0,0,1,.737.811v5.987a.815.815,0,0,1-.862.814,13.447,13.447,0,0,1-6.2-1.867,14.156,14.156,0,0,1-7.292-12.679c-.04-3.465-.008-6.931-.008-10.472V40.95a.814.814,0,0,1,.813-.814h5.92a.814.814,0,0,1,.813.814l.169,13.812" transform="translate(502.546 -3.068)" fill="#01a3e3"/>
    <path id="Path_9509" data-name="Path 9509" d="M273.9,76.717a15.012,15.012,0,0,1-5.563-13.292A15.22,15.22,0,0,1,279.2,50.465a15.055,15.055,0,0,1,11.191,1.159,2.663,2.663,0,0,0,.275.132.837.837,0,0,0,.216,0V40.132H298.4V79.449h-6.341V77.39c-6.247,3.691-12.265,3.654-18.163-.673m5.075-17.834a7.24,7.24,0,0,0-2.917,7.738,7.376,7.376,0,0,0,9.726,5.4,7.031,7.031,0,0,0,4.9-5.559,7.168,7.168,0,0,0-2.257-7,7.507,7.507,0,0,0-9.455-.58" transform="translate(650.86 -3.066)" fill="#fff"/>
    <path id="Path_9510" data-name="Path 9510" d="M632.567,77.533c-6.729,0-13.383,0-20.037.009a1.12,1.12,0,0,0-.224.073,6.173,6.173,0,0,0,1.887,2.684,7.506,7.506,0,0,0,10.1-.114,1.43,1.43,0,0,1,.835-.4c2.625-.031,5.251-.018,7.877-.016a1.988,1.988,0,0,1,.287.042,15.066,15.066,0,1,1-9.609-19.5c8.368,2.68,11.711,11.214,10.23,17.227h-1.345M612.376,71.5l-.133.459h13.928a7.334,7.334,0,0,0-6.232-4.7c-3.39-.311-5.894,1.15-7.563,4.243" transform="translate(482.962 -12.803)" fill="#01a3e3"/>
    <path id="Path_9511" data-name="Path 9511" d="M206.355,77.958a7.507,7.507,0,0,0,11.871,2.206,1.236,1.236,0,0,1,.692-.384c2.752-.027,5.5-.017,8.26-.017-.757,5.571-9.253,10.808-15.792,9.934a15.1,15.1,0,1,1,16.527-12.2c-.27.011-.563.036-.856.036-6.706,0-13.412,0-20.118.021-.186,0-.778-.368-.584.409M212.2,67.241c-2.814.365-5.41,2.4-6.008,4.717H220a7.348,7.348,0,0,0-7.8-4.717" transform="translate(686 -12.8)" fill="#fff"/>
    <path id="Path_9512" data-name="Path 9512" d="M470.952,63.017a14.882,14.882,0,0,1,5.319,9.643,15.577,15.577,0,0,1,.12,1.98q.016,7.033.006,14.068c0,.149-.023.3-.038.5h-7.448V87.633c-1.093.425-2.1.891-3.155,1.216a14.933,14.933,0,1,1,5.2-25.832m-3.324,7.392c-.224-.277-.431-.571-.675-.828a7.072,7.072,0,0,0-7.211-2.227,7.353,7.353,0,0,0-4.65,11.031,7.488,7.488,0,0,0,11.858,1.178,7.589,7.589,0,0,0,.678-9.154" transform="translate(561.742 -12.808)" fill="#01a3e3"/>
    <path id="Path_9513" data-name="Path 9513" d="M348.115,87.3a15.056,15.056,0,0,1,9.97-27.571c6.294.868,10.47,4.394,12.625,10.343a2.191,2.191,0,0,1,.08.294,1.328,1.328,0,0,1,0,.209c-.187.019-.376.054-.565.054-2.32,0-4.642.021-6.962-.019a1.351,1.351,0,0,1-.919-.47,7.51,7.51,0,1,0-.04,9.078,1.1,1.1,0,0,1,1-.516c2.492.023,4.984.011,7.492.011-2.073,8.751-13.184,14.581-22.684,8.587" transform="translate(614.364 -12.802)" fill="#01a3e3"/>
    <path id="Path_9514" data-name="Path 9514" d="M531.633,54.386h4.557v7h-6.732V79.34h-7.6V61.416h-4.278V54.431H521.8a14.447,14.447,0,0,1,6.245-11.854A13.905,13.905,0,0,1,536.189,40v7.56a6.814,6.814,0,0,0-5.544,2.972,6.076,6.076,0,0,0-1.162,3.854Z" transform="translate(526.209 -3)" fill="#01a3e3"/>
    <path id="Path_9515" data-name="Path 9515" d="M424.883,64.452v2.392a18.89,18.89,0,0,0-3.164,1.319,5.32,5.32,0,0,0-2.359,4.781q.014,7.6,0,15.205v.861H411.89a1.61,1.61,0,0,1-.065-.307c.009-5.628-.06-11.258.054-16.884a12.96,12.96,0,0,1,11.01-12.1c.627-.083,1.259-.128,1.993-.2Z" transform="translate(579.094 -12.761)" fill="#01a3e3"/>
    <path id="Path_9516" data-name="Path 9516" d="M676.01,78.37c.008-2.191-.024-4.308.033-6.422a13.058,13.058,0,0,1,11-12.219c.629-.086,1.264-.132,1.964-.2V67a13.912,13.912,0,0,0-2.241.65,5.427,5.427,0,0,0-3.216,5.285c-.011,5.072,0,10.144,0,15.215v.858H676.01Z" transform="translate(446.996 -12.763)" fill="#01a3e3"/>
    <path id="Path_9517" data-name="Path 9517" d="M70.887,1.525,62,12.805,67,16,74,5.763,81,16l5-3.2L77.113,1.525a3.942,3.942,0,0,0-6.227,0" transform="translate(754 17)" fill="#fff"/>
    <path id="Path_9518" data-name="Path 9518" d="M1.525,77.113,12.805,86,16,81,5.763,74,16,67l-3.2-5L1.525,70.887a3.942,3.942,0,0,0,0,6.227" transform="translate(785 -14)" fill="#fff"/>
    <path id="Path_9519" data-name="Path 9519" d="M77.113,154.475,86,143.2,81,140l-7,10.238L67,140l-5,3.2,8.887,11.28a3.942,3.942,0,0,0,6.227,0" transform="translate(754 -53)" fill="#fff"/>
    <path id="Path_9520" data-name="Path 9520" d="M154.475,70.887,143.2,62,140,67l10.238,7L140,81l3.2,5,11.28-8.887a3.942,3.942,0,0,0,0-6.227" transform="translate(715 -14)" fill="#fff"/>
    <path id="Path_9521" data-name="Path 9521" d="M39,129.966,25.1,116l-2.084,2.1a2.794,2.794,0,0,0-.694,2.1c-.063,2.955-.325,11.819-.325,11.819a.965.965,0,0,0,.979.991s8.889-.188,11.852-.24a2.755,2.755,0,0,0,2.084-.7l2.084-2.1" transform="translate(774 -41)" fill="#01a3e3"/>
    <path id="Path_9522" data-name="Path 9522" d="M129.966,116,116,129.9l2.1,2.085a2.794,2.794,0,0,0,2.1.695c2.955.063,11.819.324,11.819.324a.965.965,0,0,0,.991-.979s-.188-8.889-.24-11.852a2.755,2.755,0,0,0-.7-2.084l-2.1-2.085" transform="translate(727 -41)" fill="#01a3e3"/>
    <path id="Path_9523" data-name="Path 9523" d="M25.033,39,39,25.1l-2.1-2.084a2.794,2.794,0,0,0-2.1-.694C31.855,22.261,22.991,22,22.991,22a.965.965,0,0,0-.991.979s.188,8.889.24,11.852a2.755,2.755,0,0,0,.7,2.084L25.033,39" transform="translate(774 6)" fill="#01a3e3"/>
    <path id="Path_9524" data-name="Path 9524" d="M116,25.033,129.9,39l2.085-2.1a2.794,2.794,0,0,0,.695-2.1c.063-2.955.324-11.819.324-11.819a.965.965,0,0,0-.979-.991s-8.889.188-11.852.24a2.755,2.755,0,0,0-2.084.7L116,25.033" transform="translate(727 6)" fill="#01a3e3"/>
  </g>
</svg>
