<svg width="422" height="185" viewBox="0 0 422 185" fill="none" xmlns="http://www.w3.org/2000/svg">
<g filter="url(#filter0_d_14_11)">
<path d="M385.09 25.382C385.09 23.9356 385.519 22.5217 386.322 21.3189C387.125 20.1162 388.267 19.1787 389.604 18.6251C390.94 18.0714 392.41 17.9263 393.829 18.2083C395.247 18.4903 396.551 19.1866 397.573 20.2092C398.596 21.2318 399.293 22.5348 399.575 23.9533C399.858 25.3719 399.713 26.8423 399.16 28.1786C398.606 29.515 397.669 30.6573 396.467 31.461C395.264 32.2647 393.85 32.6938 392.404 32.694C391.444 32.6941 390.493 32.5051 389.605 32.1377C388.718 31.7703 387.912 31.2318 387.233 30.5528C386.554 29.8738 386.015 29.0677 385.647 28.1805C385.28 27.2933 385.09 26.3424 385.09 25.382ZM271.859 11.952C273.553 13.9434 275.373 15.8248 277.306 17.585C274.588 18.813 272.025 20.072 269.656 21.347C247.371 13.129 233.337 9.706 220.948 9.2C220.327 9.1752 219.715 9.35533 219.206 9.71267C218.697 10.07 218.32 10.5847 218.132 11.1775C217.944 11.7704 217.957 12.4084 218.168 12.9934C218.378 13.5784 218.776 14.0779 219.298 14.415C235.089 24.577 240.382 23.736 240.078 31.96C239.834 38.533 228.519 48.513 220.078 54.511C219.583 54.8664 219.222 55.379 219.056 55.9653C218.889 56.5516 218.925 57.1771 219.159 57.7401C219.393 58.303 219.81 58.7703 220.343 59.0659C220.876 59.3615 221.494 59.468 222.095 59.368C236.538 56.852 259.473 47.4 270.698 42.051C274.565 44.4957 278.592 46.676 282.753 48.577C280.946 50.2395 279.243 52.0111 277.653 53.882C273.039 59.404 279.393 63.974 290.876 62.582C296.525 61.7888 301.948 59.8282 306.798 56.825C315.16 58.7817 323.706 59.846 332.292 60C334.854 60.043 337.439 60.106 340.037 60.169C337.801 66.415 339.411 73.153 346.897 73.178H346.997C348.739 73.138 350.467 72.8511 352.128 72.326C359.636 69.9639 366.31 65.498 371.357 59.458C385.449 57.858 399.104 53.658 411.157 43.39C412.368 42.3591 413.341 41.0792 414.012 39.6377C414.683 38.1962 415.035 36.6269 415.044 35.037V34.9C415.033 32.6371 414.314 30.4343 412.989 28.6C407.447 20.923 395.715 10.184 371.964 5.518C347.322 0.675 322.133 3.349 301.13 9.088C296.247 6.04229 290.78 4.05419 285.081 3.252C283.754 3.08796 282.418 3.00381 281.081 3C272.198 3 267.813 7.11 271.859 11.952Z" fill="url(#paint0_linear_14_11)"/>
</g>
<g filter="url(#filter1_d_14_11)">
<path d="M123.657 39.762C123.656 38.7434 123.958 37.7477 124.524 36.9006C125.09 36.0536 125.894 35.3934 126.835 35.0034C127.776 34.6134 128.811 34.5112 129.81 34.7098C130.809 34.9083 131.727 35.3986 132.448 36.1187C133.168 36.8388 133.659 37.7563 133.857 38.7553C134.056 39.7543 133.955 40.7898 133.565 41.7309C133.175 42.672 132.515 43.4765 131.669 44.0425C130.822 44.6086 129.826 44.9108 128.808 44.911C128.131 44.9111 127.462 44.7781 126.837 44.5194C126.212 44.2607 125.644 43.8814 125.166 43.4033C124.687 42.9252 124.308 42.3575 124.049 41.7327C123.79 41.108 123.657 40.4383 123.657 39.762ZM43.9166 30.3C45.1098 31.7024 46.391 33.0274 47.7526 34.267C45.8386 35.132 44.0336 36.018 42.3656 36.916C26.6716 31.133 16.7866 28.723 8.06461 28.368C7.62883 28.3539 7.20038 28.4826 6.84451 28.7345C6.48863 28.9864 6.22482 29.3477 6.09324 29.7634C5.96167 30.1791 5.96953 30.6264 6.11564 31.0372C6.26175 31.448 6.5381 31.7998 6.90261 32.039C18.0236 39.2 21.7506 38.6 21.5366 44.394C21.3646 49.023 13.3966 56.051 7.44961 60.275C7.09977 60.5247 6.84493 60.8856 6.7267 61.2988C6.60847 61.712 6.63383 62.1531 6.79864 62.5501C6.96345 62.947 7.25798 63.2764 7.63412 63.4843C8.01027 63.6923 8.4458 63.7665 8.86961 63.695C19.0426 61.923 35.1936 55.265 43.0996 51.495C45.8215 53.2197 48.657 54.7582 51.5866 56.1C50.3154 57.2709 49.1172 58.5186 47.9986 59.836C44.7496 63.725 49.2236 66.943 57.3106 65.962C61.2901 65.4013 65.1092 64.0179 68.5246 61.9C74.4123 63.2792 80.4296 64.0301 86.4756 64.14C88.2756 64.17 90.1006 64.215 91.9296 64.259C90.3546 68.659 91.4886 73.403 96.7606 73.42H96.8296C98.0563 73.3918 99.2727 73.1898 100.443 72.82C105.731 71.157 110.432 68.012 113.987 63.758C123.911 62.63 133.527 59.677 142.014 52.443C142.866 51.717 143.552 50.8157 144.024 49.8006C144.496 48.7856 144.744 47.6806 144.751 46.561V46.461C144.743 44.8673 144.237 43.3159 143.304 42.024C139.404 36.618 131.139 29.055 114.413 25.769C97.0596 22.363 79.3206 24.246 64.5306 28.287C61.0926 26.1423 57.2431 24.7422 53.2306 24.177C52.2957 24.0616 51.3546 24.0025 50.4126 24C44.1566 24 41.0676 26.894 43.9126 30.3" fill="url(#paint1_linear_14_11)"/>
</g>
<g filter="url(#filter2_d_14_11)">
<path d="M254.09 127.382C254.09 125.936 254.519 124.522 255.322 123.319C256.125 122.116 257.267 121.179 258.604 120.625C259.94 120.071 261.41 119.926 262.829 120.208C264.247 120.49 265.551 121.187 266.573 122.209C267.596 123.232 268.293 124.535 268.575 125.953C268.858 127.372 268.713 128.842 268.16 130.179C267.606 131.515 266.669 132.657 265.467 133.461C264.264 134.265 262.85 134.694 261.404 134.694C260.444 134.694 259.493 134.505 258.605 134.138C257.718 133.77 256.912 133.232 256.233 132.553C255.554 131.874 255.015 131.068 254.647 130.18C254.28 129.293 254.09 128.342 254.09 127.382ZM140.859 113.952C142.553 115.943 144.373 117.825 146.306 119.585C143.588 120.813 141.025 122.072 138.656 123.347C116.371 115.129 102.337 111.706 89.9481 111.2C89.3268 111.175 88.7146 111.355 88.2057 111.713C87.6969 112.07 87.3196 112.585 87.1321 113.178C86.9445 113.77 86.957 114.408 87.1677 114.993C87.3784 115.578 87.7756 116.078 88.2981 116.415C104.089 126.577 109.382 125.736 109.078 133.96C108.834 140.533 97.5191 150.513 89.0781 156.511C88.5829 156.866 88.2225 157.379 88.0556 157.965C87.8887 158.552 87.9251 159.177 88.1588 159.74C88.3926 160.303 88.81 160.77 89.3432 161.066C89.8763 161.361 90.4938 161.468 91.0951 161.368C105.538 158.852 128.473 149.4 139.698 144.051C143.565 146.496 147.592 148.676 151.753 150.577C149.946 152.239 148.243 154.011 146.653 155.882C142.039 161.404 148.393 165.974 159.876 164.582C165.525 163.789 170.948 161.828 175.798 158.825C184.16 160.782 192.706 161.846 201.292 162C203.854 162.043 206.439 162.106 209.037 162.169C206.801 168.415 208.411 175.153 215.897 175.178H215.997C217.739 175.138 219.467 174.851 221.128 174.326C228.636 171.964 235.31 167.498 240.357 161.458C254.449 159.858 268.104 155.658 280.157 145.39C281.368 144.359 282.341 143.079 283.012 141.638C283.683 140.196 284.035 138.627 284.044 137.037V136.9C284.033 134.637 283.314 132.434 281.989 130.6C276.447 122.923 264.715 112.184 240.964 107.518C216.322 102.675 191.133 105.349 170.13 111.088C165.247 108.042 159.78 106.054 154.081 105.252C152.754 105.088 151.418 105.004 150.081 105C141.198 105 136.813 109.11 140.859 113.952Z" fill="url(#paint2_linear_14_11)"/>
</g>
<defs>
<filter id="filter0_d_14_11" x="212" y="0" width="209.044" height="82.178" filterUnits="userSpaceOnUse" color-interpolation-filters="sRGB">
<feFlood flood-opacity="0" result="BackgroundImageFix"/>
<feColorMatrix in="SourceAlpha" type="matrix" values="0 0 0 0 0 0 0 0 0 0 0 0 0 0 0 0 0 0 127 0" result="hardAlpha"/>
<feOffset dy="3"/>
<feGaussianBlur stdDeviation="3"/>
<feColorMatrix type="matrix" values="0 0 0 0 0 0 0 0 0 0 0 0 0 0 0 0 0 0 0.302 0"/>
<feBlend mode="normal" in2="BackgroundImageFix" result="effect1_dropShadow_14_11"/>
<feBlend mode="normal" in="SourceGraphic" in2="effect1_dropShadow_14_11" result="shape"/>
</filter>
<filter id="filter1_d_14_11" x="0" y="21" width="150.751" height="61.42" filterUnits="userSpaceOnUse" color-interpolation-filters="sRGB">
<feFlood flood-opacity="0" result="BackgroundImageFix"/>
<feColorMatrix in="SourceAlpha" type="matrix" values="0 0 0 0 0 0 0 0 0 0 0 0 0 0 0 0 0 0 127 0" result="hardAlpha"/>
<feOffset dy="3"/>
<feGaussianBlur stdDeviation="3"/>
<feColorMatrix type="matrix" values="0 0 0 0 0 0 0 0 0 0 0 0 0 0 0 0 0 0 0.302 0"/>
<feBlend mode="normal" in2="BackgroundImageFix" result="effect1_dropShadow_14_11"/>
<feBlend mode="normal" in="SourceGraphic" in2="effect1_dropShadow_14_11" result="shape"/>
</filter>
<filter id="filter2_d_14_11" x="81" y="102" width="209.044" height="82.178" filterUnits="userSpaceOnUse" color-interpolation-filters="sRGB">
<feFlood flood-opacity="0" result="BackgroundImageFix"/>
<feColorMatrix in="SourceAlpha" type="matrix" values="0 0 0 0 0 0 0 0 0 0 0 0 0 0 0 0 0 0 127 0" result="hardAlpha"/>
<feOffset dy="3"/>
<feGaussianBlur stdDeviation="3"/>
<feColorMatrix type="matrix" values="0 0 0 0 0 0 0 0 0 0 0 0 0 0 0 0 0 0 0.302 0"/>
<feBlend mode="normal" in2="BackgroundImageFix" result="effect1_dropShadow_14_11"/>
<feBlend mode="normal" in="SourceGraphic" in2="effect1_dropShadow_14_11" result="shape"/>
</filter>
<linearGradient id="paint0_linear_14_11" x1="316.522" y1="3" x2="316.522" y2="73.178" gradientUnits="userSpaceOnUse">
<stop stop-color="#00B7FC"/>
<stop offset="1" stop-color="#063A9E"/>
</linearGradient>
<linearGradient id="paint1_linear_14_11" x1="75.3753" y1="24" x2="75.3753" y2="73.42" gradientUnits="userSpaceOnUse">
<stop stop-color="#00B7FC"/>
<stop offset="1" stop-color="#063A9E"/>
</linearGradient>
<linearGradient id="paint2_linear_14_11" x1="185.522" y1="105" x2="185.522" y2="175.178" gradientUnits="userSpaceOnUse">
<stop stop-color="#00B7FC"/>
<stop offset="1" stop-color="#063A9E"/>
</linearGradient>
</defs>
</svg>
