<svg width="490" height="447" viewBox="0 0 490 447" fill="none" xmlns="http://www.w3.org/2000/svg">
<g filter="url(#filter0_d_1503_171)">
<path d="M467.182 127.718C450.496 127.09 424.221 114.807 408.488 118.36C402.756 119.654 397.811 146.288 417.379 158.321C423.519 162.097 417.888 172.533 410.879 174.215C372.937 183.315 321.592 185.07 284.062 176.575C285.977 181.815 285.862 186.261 281.708 188.013C270.143 192.89 260.414 196.183 247.558 186.873C240.19 181.538 238.473 167.847 238.347 157.125C221.047 146.819 226.056 145.719 211.578 136.067C203.893 130.944 190.078 125.436 182.81 122.2C181.33 121.541 180.057 120.493 179.126 119.168C178.195 117.842 177.641 116.29 177.523 114.674C177.405 113.059 177.727 111.442 178.455 109.995C179.183 108.548 180.29 107.326 181.658 106.459C188.397 102.159 201.745 97.435 209.531 89.649C228.289 70.891 243.737 30.616 285.116 18.478C321.061 7.93398 373.661 1.96998 412.533 3.83998C414.093 3.90842 415.607 4.39088 416.919 5.23784C418.232 6.0848 419.295 7.26572 420 8.65938C420.705 10.053 421.026 11.6092 420.931 13.1681C420.836 14.727 420.327 16.2325 419.458 17.53C405.296 38.564 394.258 68.93 408.7 77.511C426.355 87.994 466.63 53.236 476.01 62.611C485.39 71.986 488.657 128.521 467.182 127.711M243.829 67.171C240.897 67.1712 238.031 68.0407 235.593 69.6696C233.155 71.2986 231.255 73.6138 230.133 76.3225C229.011 79.0312 228.718 82.0117 229.289 84.8873C229.861 87.7629 231.273 90.4044 233.346 92.4778C235.419 94.5511 238.06 95.9633 240.935 96.5357C243.811 97.1081 246.792 96.815 249.5 95.6935C252.209 94.5721 254.525 92.6725 256.154 90.2351C257.784 87.7977 258.654 84.9319 258.655 82C258.655 80.0527 258.272 78.1245 257.527 76.3254C256.782 74.5263 255.69 72.8915 254.313 71.5145C252.937 70.1374 251.302 69.0451 249.503 68.2998C247.704 67.5546 245.776 67.171 243.829 67.171Z" fill="url(#paint0_linear_1503_171)"/>
</g>
<g filter="url(#filter1_d_1503_171)">
<path d="M318.677 367.078C300.667 366.4 272.306 353.142 255.324 356.978C249.137 358.378 243.799 387.123 264.924 400.111C271.551 404.187 265.473 415.451 257.908 417.267C216.954 427.094 161.534 428.984 121.024 419.814C123.091 425.47 122.969 430.269 118.483 432.16C106 437.424 95.4992 440.979 81.6222 430.93C73.6692 425.172 71.8162 410.394 71.6802 398.821C53.0012 387.7 58.4112 386.508 42.7842 376.09C34.4842 370.56 19.5752 364.615 11.7322 361.122C10.1353 360.411 8.76119 359.28 7.75629 357.849C6.75139 356.419 6.15332 354.742 6.02576 352.999C5.89821 351.255 6.24596 349.51 7.03197 347.948C7.81798 346.387 9.01281 345.068 10.4892 344.131C17.7632 339.49 32.1702 334.391 40.5752 325.987C60.8222 305.74 77.4962 262.268 122.16 249.167C160.958 237.786 217.733 231.349 259.691 233.367C261.375 233.442 263.009 233.963 264.425 234.877C265.842 235.791 266.989 237.066 267.75 238.57C268.511 240.074 268.858 241.754 268.755 243.436C268.653 245.119 268.104 246.744 267.166 248.144C251.88 270.844 239.966 303.628 255.554 312.886C274.61 324.201 318.082 286.686 328.207 296.808C338.332 306.93 341.858 367.95 318.678 367.079M77.5952 301.725C74.4307 301.725 71.3373 302.664 68.7061 304.422C66.0749 306.18 64.0242 308.679 62.8132 311.603C61.6022 314.526 61.2853 317.743 61.9027 320.847C62.52 323.951 64.0439 326.802 66.2815 329.039C68.5192 331.277 71.3701 332.801 74.4738 333.418C77.5775 334.035 80.7945 333.719 83.7182 332.508C86.6418 331.297 89.1406 329.246 90.8987 326.615C92.6568 323.983 93.5952 320.89 93.5952 317.725C93.5952 313.482 91.9095 309.412 88.9089 306.412C85.9084 303.411 81.8387 301.725 77.5952 301.725Z" fill="url(#paint1_linear_1503_171)"/>
</g>
<defs>
<filter id="filter0_d_1503_171" x="171.499" y="0.499451" width="317.763" height="201.294" filterUnits="userSpaceOnUse" color-interpolation-filters="sRGB">
<feFlood flood-opacity="0" result="BackgroundImageFix"/>
<feColorMatrix in="SourceAlpha" type="matrix" values="0 0 0 0 0 0 0 0 0 0 0 0 0 0 0 0 0 0 127 0" result="hardAlpha"/>
<feOffset dy="3"/>
<feGaussianBlur stdDeviation="3"/>
<feColorMatrix type="matrix" values="0 0 0 0 0 0 0 0 0 0 0 0 0 0 0 0 0 0 0.302 0"/>
<feBlend mode="normal" in2="BackgroundImageFix" result="effect1_dropShadow_1503_171"/>
<feBlend mode="normal" in="SourceGraphic" in2="effect1_dropShadow_1503_171" result="shape"/>
</filter>
<filter id="filter1_d_1503_171" x="0" y="230" width="342.036" height="216.32" filterUnits="userSpaceOnUse" color-interpolation-filters="sRGB">
<feFlood flood-opacity="0" result="BackgroundImageFix"/>
<feColorMatrix in="SourceAlpha" type="matrix" values="0 0 0 0 0 0 0 0 0 0 0 0 0 0 0 0 0 0 127 0" result="hardAlpha"/>
<feOffset dy="3"/>
<feGaussianBlur stdDeviation="3"/>
<feColorMatrix type="matrix" values="0 0 0 0 0 0 0 0 0 0 0 0 0 0 0 0 0 0 0.302 0"/>
<feBlend mode="normal" in2="BackgroundImageFix" result="effect1_dropShadow_1503_171"/>
<feBlend mode="normal" in="SourceGraphic" in2="effect1_dropShadow_1503_171" result="shape"/>
</filter>
<linearGradient id="paint0_linear_1503_171" x1="330.381" y1="3.49945" x2="330.381" y2="192.793" gradientUnits="userSpaceOnUse">
<stop stop-color="#00B7FC"/>
<stop offset="1" stop-color="#063A9E"/>
</linearGradient>
<linearGradient id="paint1_linear_1503_171" x1="171.018" y1="233" x2="171.018" y2="437.32" gradientUnits="userSpaceOnUse">
<stop stop-color="#00B7FC"/>
<stop offset="1" stop-color="#063A9E"/>
</linearGradient>
</defs>
</svg>
