<svg xmlns="http://www.w3.org/2000/svg" width="172" height="172" viewBox="0 0 172 172">
  <g id="Symbol" transform="translate(-841 -291)">
    <path id="Path_9525" data-name="Path 9525" d="M79.773,3.049,62,25.61,72,32,86,11.525,100,32l10-6.39L92.227,3.049a7.884,7.884,0,0,0-12.454,0" transform="translate(841 291)" fill="#fff"/>
    <path id="Path_9526" data-name="Path 9526" d="M3.049,92.227,25.61,110,32,100,11.525,86,32,72,25.61,62,3.049,79.773a7.884,7.884,0,0,0,0,12.454" transform="translate(841 291)" fill="#fff"/>
    <path id="Path_9527" data-name="Path 9527" d="M92.227,168.951,110,146.39,100,140,86,160.475,72,140l-10,6.39,17.773,22.561a7.884,7.884,0,0,0,12.454,0" transform="translate(841 291)" fill="#fff"/>
    <path id="Path_9528" data-name="Path 9528" d="M168.951,79.773,146.39,62,140,72l20.475,14L140,100l6.39,10,22.561-17.773a7.884,7.884,0,0,0,0-12.454" transform="translate(841 291)" fill="#fff"/>
    <path id="Path_9529" data-name="Path 9529" d="M56,143.933,28.207,116s-3.126,3.143-4.169,4.19a5.588,5.588,0,0,0-1.389,4.19c-.126,5.91-.649,23.638-.649,23.638A1.93,1.93,0,0,0,23.958,150s17.778-.376,23.7-.48a5.509,5.509,0,0,0,4.169-1.4L56,143.933" transform="translate(841 291)" fill="#01a3e3"/>
    <path id="Path_9530" data-name="Path 9530" d="M143.933,116,116,143.793s3.143,3.126,4.19,4.169a5.589,5.589,0,0,0,4.19,1.389c5.91.126,23.638.649,23.638.649A1.93,1.93,0,0,0,150,148.042s-.376-17.778-.48-23.7a5.509,5.509,0,0,0-1.4-4.169L143.933,116" transform="translate(841 291)" fill="#01a3e3"/>
    <path id="Path_9531" data-name="Path 9531" d="M28.067,56,56,28.207s-3.143-3.126-4.19-4.169a5.589,5.589,0,0,0-4.19-1.389C41.71,22.523,23.982,22,23.982,22A1.93,1.93,0,0,0,22,23.958s.376,17.778.48,23.7a5.509,5.509,0,0,0,1.4,4.169L28.067,56" transform="translate(841 291)" fill="#01a3e3"/>
    <path id="Path_9532" data-name="Path 9532" d="M116,28.067,143.793,56s3.126-3.143,4.169-4.19a5.589,5.589,0,0,0,1.389-4.19c.126-5.91.649-23.638.649-23.638A1.93,1.93,0,0,0,148.042,22s-17.778.376-23.7.48a5.509,5.509,0,0,0-4.169,1.4L116,28.067" transform="translate(841 291)" fill="#01a3e3"/>
  </g>
</svg>
