<svg xmlns="http://www.w3.org/2000/svg" xmlns:xlink="http://www.w3.org/1999/xlink" width="460.086" height="184.101" viewBox="0 0 460.086 184.101">
  <defs>
    <linearGradient id="linear-gradient" x1="0.5" x2="0.5" y2="1" gradientUnits="objectBoundingBox">
      <stop offset="0" stop-color="#fff" stop-opacity="0.4"/>
      <stop offset="1" stop-color="#fff" stop-opacity="0.702"/>
    </linearGradient>
    <filter id="Path_1" x="0" y="0" width="460.086" height="184.101" filterUnits="userSpaceOnUse">
      <feOffset dy="3" input="SourceAlpha"/>
      <feGaussianBlur stdDeviation="3" result="blur"/>
      <feFlood flood-opacity="0.302"/>
      <feComposite operator="in" in2="blur"/>
      <feComposite in="SourceGraphic"/>
    </filter>
  </defs>
  <g transform="matrix(1, 0, 0, 1, 0, 0)" filter="url(#Path_1)" style="mix-blend-mode: screen;isolation: isolate">
    <path id="Path_1-2" data-name="Path 1" d="M442.086,70.833c0-33.143-35.1-60.011-78.393-60.011-24.063,0-45.589,8.3-59.969,21.365C299.323,13.875,278.365,0,253.171,0c-21.075,0-39.185,9.71-47.12,23.6a58.345,58.345,0,0,0-10.673-.977c-11.993,0-22.889,3.591-30.958,9.443A64.783,64.783,0,0,0,130,22.627c-29.772,0-53.931,18.383-54.174,41.129a58.612,58.612,0,0,0-27.636-6.667C21.576,57.089,0,73.607,0,93.982s21.576,36.892,48.192,36.892a62.555,62.555,0,0,0,10.909-.95c6.11,13.149,22.508,22.563,41.781,22.563,18.91,0,35.052-9.063,41.425-21.824a63.488,63.488,0,0,0,22.832,4.145,62.018,62.018,0,0,0,28.2-6.544,73.838,73.838,0,0,0,31.882,7.006,77,77,0,0,0,18.713-2.278c8.726,19.271,32.644,33.108,60.787,33.108,29.2,0,53.847-14.894,61.7-35.3,42.031-1.1,75.664-27.527,75.664-59.971" transform="translate(9 6)" fill="url(#linear-gradient)"/>
  </g>
</svg>
