<svg xmlns="http://www.w3.org/2000/svg" width="385.239" height="37.486" viewBox="0 0 385.239 37.486">
  <path id="Path_9358" data-name="Path 9358" d="M372.718,0H98.536C91.649,0,86.015,2.688,86.015,5.974s5.634,5.974,12.521,5.974H204.962s15.214,6.745,0,14.81H8.623C3.881,26.757,0,28.609,0,30.871v2.5c0,2.263,3.881,4.114,8.623,4.114H325.017c4.743,0,8.623-1.851,8.623-4.114v-2.5c0-2.263-3.88-4.114-8.623-4.114H307.978c-15.214-8.065,0-14.81,0-14.81h64.74c6.886,0,12.52-2.688,12.52-5.974S379.6,0,372.718,0" fill="#00b4f9" opacity="0.7"/>
</svg>
