<svg xmlns="http://www.w3.org/2000/svg" width="451.415" height="38.962" viewBox="0 0 451.415 38.962">
  <path id="Path_9363" data-name="Path 9363" d="M442.467,29.442H172.2c-12.108-7.157,0-13.141,0-13.141H291.272c8.427,0,15.321-3.668,15.321-8.15S299.7,0,291.272,0H83.777C75.35,0,68.455,3.668,68.455,8.15S75.35,16.3,83.777,16.3h52.1s12.108,5.985,0,13.141H8.948C4.027,29.442,0,31.584,0,34.2s4.027,4.76,8.948,4.76H442.467c4.922,0,8.948-2.142,8.948-4.76s-4.027-4.76-8.948-4.76" fill="#00b4f9" opacity="0.7"/>
</svg>
