<svg width="307" height="173" viewBox="0 0 307 173" fill="none" xmlns="http://www.w3.org/2000/svg">
<g filter="url(#filter0_d_1503_164)">
<path d="M279.657 129.762C279.656 128.743 279.958 127.748 280.524 126.901C281.09 126.054 281.894 125.393 282.835 125.003C283.776 124.613 284.811 124.511 285.81 124.71C286.809 124.908 287.727 125.399 288.448 126.119C289.168 126.839 289.659 127.756 289.857 128.755C290.056 129.754 289.955 130.79 289.565 131.731C289.175 132.672 288.515 133.476 287.669 134.043C286.822 134.609 285.826 134.911 284.808 134.911C284.131 134.911 283.462 134.778 282.837 134.519C282.212 134.261 281.644 133.881 281.166 133.403C280.687 132.925 280.308 132.358 280.049 131.733C279.79 131.108 279.657 130.438 279.657 129.762ZM199.917 120.3C201.11 121.702 202.391 123.027 203.753 124.267C201.839 125.132 200.034 126.018 198.366 126.916C182.672 121.133 172.787 118.723 164.065 118.368C163.629 118.354 163.2 118.483 162.845 118.735C162.489 118.986 162.225 119.348 162.093 119.763C161.962 120.179 161.97 120.626 162.116 121.037C162.262 121.448 162.538 121.8 162.903 122.039C174.024 129.2 177.751 128.6 177.537 134.394C177.365 139.023 169.397 146.051 163.45 150.275C163.1 150.525 162.845 150.886 162.727 151.299C162.608 151.712 162.634 152.153 162.799 152.55C162.963 152.947 163.258 153.276 163.634 153.484C164.01 153.692 164.446 153.767 164.87 153.695C175.043 151.923 191.194 145.265 199.1 141.495C201.821 143.22 204.657 144.758 207.587 146.1C206.315 147.271 205.117 148.519 203.999 149.836C200.75 153.725 205.224 156.943 213.311 155.962C217.29 155.401 221.109 154.018 224.525 151.9C230.412 153.279 236.43 154.03 242.476 154.14C244.276 154.17 246.101 154.215 247.93 154.259C246.355 158.659 247.489 163.403 252.761 163.42H252.83C254.056 163.392 255.273 163.19 256.443 162.82C261.731 161.157 266.432 158.012 269.987 153.758C279.911 152.63 289.527 149.677 298.014 142.443C298.866 141.717 299.552 140.816 300.024 139.801C300.496 138.786 300.744 137.681 300.751 136.561V136.461C300.743 134.867 300.237 133.316 299.304 132.024C295.404 126.618 287.139 119.055 270.413 115.769C253.06 112.363 235.321 114.246 220.531 118.287C217.093 116.142 213.243 114.742 209.231 114.177C208.296 114.062 207.355 114.002 206.413 114C200.157 114 197.068 116.894 199.913 120.3" fill="url(#paint0_linear_1503_164)"/>
</g>
<g filter="url(#filter1_d_1503_164)">
<path d="M173.592 25.882C173.592 24.4356 174.021 23.0217 174.824 21.8189C175.627 20.6162 176.769 19.6787 178.106 19.1251C179.442 18.5714 180.912 18.4263 182.331 18.7083C183.749 18.9903 185.053 19.6866 186.075 20.7092C187.098 21.7318 187.795 23.0348 188.077 24.4533C188.36 25.8719 188.215 27.3423 187.662 28.6786C187.108 30.015 186.171 31.1573 184.969 31.961C183.766 32.7647 182.352 33.1938 180.906 33.194C179.946 33.1941 178.995 33.0051 178.107 32.6377C177.22 32.2703 176.414 31.7318 175.735 31.0528C175.056 30.3738 174.517 29.5677 174.149 28.6805C173.781 27.7933 173.592 26.8424 173.592 25.882ZM60.361 12.452C62.0553 14.4434 63.8747 16.3248 65.808 18.085C63.09 19.313 60.5271 20.572 58.1581 21.847C35.8731 13.629 21.839 10.206 9.45005 9.7C8.82876 9.6752 8.21654 9.85533 7.70769 10.2127C7.19884 10.57 6.82158 11.0847 6.63402 11.6775C6.44645 12.2704 6.45898 12.9084 6.66968 13.4934C6.88038 14.0784 7.27756 14.5779 7.80005 14.915C23.591 25.077 28.884 24.236 28.58 32.46C28.336 39.033 17.021 49.013 8.58005 55.011C8.08481 55.3664 7.72442 55.879 7.55751 56.4653C7.3906 57.0516 7.42701 57.6771 7.66079 58.2401C7.89458 58.803 8.312 59.2703 8.84513 59.5659C9.37825 59.8615 9.99571 59.968 10.597 59.868C25.04 57.352 47.975 47.9 59.2001 42.551C63.0666 44.9957 67.0941 47.176 71.255 49.077C69.4483 50.7395 67.7451 52.5111 66.155 54.382C61.541 59.904 67.895 64.474 79.378 63.082C85.0274 62.2888 90.4498 60.3282 95.3 57.325C103.662 59.2817 112.208 60.346 120.794 60.5C123.356 60.543 125.941 60.606 128.539 60.669C126.303 66.915 127.913 73.653 135.399 73.678H135.499C137.241 73.638 138.969 73.3511 140.63 72.826C148.138 70.4639 154.812 65.998 159.859 59.958C173.951 58.358 187.606 54.158 199.659 43.89C200.869 42.8591 201.843 41.5792 202.514 40.1377C203.185 38.6962 203.537 37.1269 203.546 35.537V35.4C203.535 33.1371 202.816 30.9343 201.491 29.1C195.949 21.423 184.217 10.684 160.466 6.018C135.824 1.175 110.635 3.849 89.632 9.588C84.7491 6.54229 79.2818 4.55419 73.583 3.752C72.256 3.58796 70.9202 3.50381 69.583 3.5C60.7 3.5 56.315 7.61 60.361 12.452Z" fill="url(#paint1_linear_1503_164)"/>
</g>
<defs>
<filter id="filter0_d_1503_164" x="156" y="111" width="150.75" height="61.42" filterUnits="userSpaceOnUse" color-interpolation-filters="sRGB">
<feFlood flood-opacity="0" result="BackgroundImageFix"/>
<feColorMatrix in="SourceAlpha" type="matrix" values="0 0 0 0 0 0 0 0 0 0 0 0 0 0 0 0 0 0 127 0" result="hardAlpha"/>
<feOffset dy="3"/>
<feGaussianBlur stdDeviation="3"/>
<feColorMatrix type="matrix" values="0 0 0 0 0 0 0 0 0 0 0 0 0 0 0 0 0 0 0.302 0"/>
<feBlend mode="normal" in2="BackgroundImageFix" result="effect1_dropShadow_1503_164"/>
<feBlend mode="normal" in="SourceGraphic" in2="effect1_dropShadow_1503_164" result="shape"/>
</filter>
<filter id="filter1_d_1503_164" x="0.501953" y="0.5" width="209.044" height="82.178" filterUnits="userSpaceOnUse" color-interpolation-filters="sRGB">
<feFlood flood-opacity="0" result="BackgroundImageFix"/>
<feColorMatrix in="SourceAlpha" type="matrix" values="0 0 0 0 0 0 0 0 0 0 0 0 0 0 0 0 0 0 127 0" result="hardAlpha"/>
<feOffset dy="3"/>
<feGaussianBlur stdDeviation="3"/>
<feColorMatrix type="matrix" values="0 0 0 0 0 0 0 0 0 0 0 0 0 0 0 0 0 0 0.302 0"/>
<feBlend mode="normal" in2="BackgroundImageFix" result="effect1_dropShadow_1503_164"/>
<feBlend mode="normal" in="SourceGraphic" in2="effect1_dropShadow_1503_164" result="shape"/>
</filter>
<linearGradient id="paint0_linear_1503_164" x1="231.375" y1="114" x2="231.375" y2="163.42" gradientUnits="userSpaceOnUse">
<stop stop-color="#00B7FC"/>
<stop offset="1" stop-color="#063A9E"/>
</linearGradient>
<linearGradient id="paint1_linear_1503_164" x1="105.024" y1="3.5" x2="105.024" y2="73.678" gradientUnits="userSpaceOnUse">
<stop stop-color="#00B7FC"/>
<stop offset="1" stop-color="#063A9E"/>
</linearGradient>
</defs>
</svg>
