<svg width="1920" height="133" viewBox="0 0 1920 133" fill="none" xmlns="http://www.w3.org/2000/svg">
<mask id="mask0_1502_157" style="mask-type:alpha" maskUnits="userSpaceOnUse" x="0" y="0" width="1920" height="133">
<rect width="1920" height="133" fill="#FDFDFD"/>
</mask>
<g mask="url(#mask0_1502_157)">
<path d="M1919.8 29.5303C1873.3 29.5303 1793.7 -27.2168 1690.87 28.7451C1588.05 84.707 1536.76 8.95312 1426.29 47.8811C1337.13 79.2981 1227.75 24.092 1132.88 47.8811C1043.78 70.2251 1007.79 33.5291 849.955 28.7451C769.774 26.3152 726.099 81.6602 676.602 82.8792C629.049 84.05 575.647 31.0991 501.536 28.7451C350.904 23.9612 358.083 123.827 244.807 28.7451C172.413 -32.0168 82.8809 21.2542 -0.00012207 28.7451L-0.00012207 2152L1919.8 2152L1919.8 525.328C1919.8 525.328 1920.25 162.94 1919.8 29.5303Z" fill="url(#paint0_linear_1502_157)"/>
</g>
<defs>
<linearGradient id="paint0_linear_1502_157" x1="959.999" y1="2152" x2="959.999" y2="159.245" gradientUnits="userSpaceOnUse">
<stop stop-color="#000052"/>
<stop offset="0.566" stop-color="#02257B"/>
<stop offset="1" stop-color="#005CB8"/>
</linearGradient>
</defs>
</svg>
